<?xml version="1.0" standalone="no"?>
<!DOCTYPE svg PUBLIC "-//W3C//DTD SVG 20010904//EN"
 "http://www.w3.org/TR/2001/REC-SVG-20010904/DTD/svg10.dtd">
<svg version="1.0" xmlns="http://www.w3.org/2000/svg"
 width="177.000000pt" height="190.000000pt" viewBox="0 0 177.000000 190.000000"
 preserveAspectRatio="xMidYMid meet">

<g transform="translate(0.000000,190.000000) scale(0.100000,-0.100000)"
fill="#000000" stroke="none">
<path d="M0 950 l0 -950 885 0 885 0 0 950 0 950 -885 0 -885 0 0 -950z m1430
800 c20 -20 20 -33 20 -795 0 -762 0 -775 -20 -795 -20 -20 -33 -20 -581 -20
-367 0 -567 4 -580 10 -19 10 -19 30 -19 798 0 433 4 792 8 798 4 6 14 14 22
17 8 3 266 6 573 6 544 1 557 1 577 -19z"/>
<path d="M285 1718 c-3 -7 -4 -355 -3 -773 l3 -760 563 -3 562 -2 0 775 0 775
-560 0 c-439 0 -562 -3 -565 -12z m575 -214 c0 -19 -4 -25 -15 -20 -15 5 -181
-59 -191 -75 -14 -23 75 -5 172 36 111 47 124 51 124 37 0 -5 -43 -26 -95 -48
-142 -58 -135 -46 -135 -228 0 -172 -1 -175 -68 -153 l-37 12 0 185 0 184 110
48 c61 26 116 48 123 48 6 0 12 -12 12 -26z m138 -72 c3 -17 -1 -22 -20 -20
-13 1 -63 -16 -112 -37 -82 -36 -87 -40 -62 -46 30 -8 59 0 184 55 45 20 87
34 92 31 6 -4 10 -74 10 -171 l0 -165 -82 -38 c-46 -21 -106 -47 -134 -56 -49
-18 -51 -18 -90 1 l-39 19 -3 171 c-2 129 1 174 10 181 21 17 222 103 233 99
6 -1 11 -12 13 -24z m-118 -619 c11 -10 20 -27 20 -39 0 -26 -81 -119 -122
-140 -23 -12 -29 -21 -26 -42 5 -43 33 -38 91 17 41 39 61 51 85 51 17 0 32
-6 35 -12 7 -21 -12 -48 -34 -48 -25 0 -20 -23 5 -28 11 -2 35 14 61 41 47 50
74 67 103 67 25 0 44 -23 36 -44 -9 -23 -27 -20 -19 4 5 15 3 18 -9 14 -16 -6
-46 -47 -46 -64 0 -20 67 -10 104 15 41 28 46 29 46 15 0 -5 -20 -21 -43 -35
-52 -30 -120 -36 -144 -12 -14 14 -19 14 -52 -4 -43 -23 -57 -23 -95 -4 -26
14 -31 13 -61 -5 -46 -28 -90 -26 -111 5 -14 22 -15 31 -4 71 17 60 64 129
109 160 l36 25 -75 -3 -75 -3 -28 -70 c-33 -83 -83 -272 -74 -281 4 -4 13 -1
22 6 9 7 18 10 21 7 3 -3 -6 -13 -21 -23 -20 -13 -33 -15 -53 -8 -24 9 -27 15
-26 54 2 47 32 155 70 253 l23 57 -42 0 c-23 0 -55 -7 -70 -15 -21 -10 -27
-11 -25 -2 9 25 74 36 220 36 126 1 151 -2 168 -16z m200 -419 c0 -8 -19 -13
-24 -6 -3 5 1 9 9 9 8 0 15 -2 15 -3z"/>
<path d="M849 770 c-19 -11 -84 -108 -77 -115 8 -8 82 61 101 94 19 33 10 41
-24 21z"/>
</g>
</svg>
